<svg xmlns="http://www.w3.org/2000/svg" viewBox="0 0 48 48" id="Girl"><path d="M24.59 29.47h-1.38a.84.84 0 0 0-.83.84.83.83 0 0 0 .83.83h1.38a.83.83 0 0 0 .83-.83.84.84 0 0 0-.83-.84Zm6.65-18.75c-.52-.21-7.22-2.93-13.13-.1-3.54 1.69-6 5-7.35 9.73C8.9 27 8.82 31.14 10.49 33.93s5.11 3.84 9 4.7h.27a1.27 1.27 0 0 0 .34 0 1 1 0 0 0 .24 0 .84.84 0 0 0 .84-.83v-1a7.63 7.63 0 0 0 2.71.52 8 8 0 0 0 3.9-1.08v1.58a.83.83 0 0 0 .83.83.82.82 0 0 0 .35-.08 1.18 1.18 0 0 0 .56 0 11.47 11.47 0 0 0 7.69-7 17.66 17.66 0 0 0 1.37-5.23c1.06-12.05-6.71-15.34-7.35-15.62Zm-18.6 21.92c-1-1.67-1.11-4.33-.3-8.24h.4a1.13 1.13 0 0 0 .07.55 16.18 16.18 0 0 0 6.71 11v.11c-3.7-.83-5.81-1.63-6.88-3.42Zm2-6.77h1.13a20.53 20.53 0 0 0 13.89-5.54 7.07 7.07 0 0 0 3.69 4.07c-.59 5.24-4.79 11.21-9.48 11.21-4.22.04-8.09-4.91-9.2-9.74Zm21.44.29c0 .08-.65 7.85-6.64 9.82v-.89a16.53 16.53 0 0 0 5.64-11.46 1.26 1.26 0 0 0-.75-1.49c-2.29-.89-2.81-4.29-2.81-4.34v-.19a.42.42 0 0 0 0-.1.61.61 0 0 0-.05-.12l-.06-.1-.07-.1-.09-.1-.25-.15-.1-.06-.12-.06h-.94l-.11.05-.11.07-.09.07a.28.28 0 0 0-.1.09h-.05a18.2 18.2 0 0 1-13.58 6.31A23.25 23.25 0 0 0 23.51 19a.83.83 0 0 0 0-1.18.82.82 0 0 0-1.17 0c-3.09 2.88-8.09 4.41-9.64 4.84.13-.52.27-1.05.42-1.61 1.14-4 3.16-6.79 6-8.15 5-2.4 11 .12 11.11.15.17.03 6.77 2.64 5.88 13.11Z" fill="#ffffff" class="color000000 svgShape"></path></svg>